<svg xmlns="http://www.w3.org/2000/svg" viewBox="0 -0.5 512 496" shape-rendering="crispEdges">
<metadata>Made with Pixels to Svg https://codepen.io/shshaw/pen/XbxvNj</metadata>
<path stroke="#ffffff" d="M16 0h264M320 0h8M368 0h8M16 1h264M320 1h8M368 1h8M16 2h264M320 2h8M368 2h8M16 3h264M320 3h8M368 3h8M16 4h264M320 4h8M368 4h8M16 5h264M320 5h8M368 5h8M16 6h264M320 6h8M368 6h8M16 7h264M320 7h8M368 7h8M16 8h8M288 8h8M304 8h8M320 8h8M368 8h8M480 8h8M16 9h8M288 9h8M304 9h8M320 9h8M368 9h8M480 9h8M16 10h8M288 10h8M304 10h8M320 10h8M368 10h8M480 10h8M16 11h8M288 11h8M304 11h8M320 11h8M368 11h8M480 11h8M16 12h8M288 12h8M304 12h8M320 12h8M368 12h8M480 12h8M16 13h8M288 13h8M304 13h8M320 13h8M368 13h8M480 13h8M16 14h8M288 14h8M304 14h8M320 14h8M368 14h8M480 14h8M16 15h8M288 15h8M304 15h8M320 15h8M368 15h8M480 15h8M16 16h8M296 16h8M320 16h8M360 16h24M472 16h24M16 17h8M296 17h8M320 17h8M360 17h24M472 17h24M16 18h8M296 18h8M320 18h8M360 18h24M472 18h24M16 19h8M296 19h8M320 19h8M360 19h24M472 19h24M16 20h8M296 20h8M320 20h8M360 20h24M472 20h24M16 21h8M296 21h8M320 21h8M360 21h24M472 21h24M16 22h8M296 22h8M320 22h8M360 22h24M472 22h24M16 23h8M296 23h8M320 23h8M360 23h24M472 23h24M16 24h8M288 24h8M304 24h8M320 24h8M368 24h8M480 24h8M16 25h8M288 25h8M304 25h8M320 25h8M368 25h8M480 25h8M16 26h8M288 26h8M304 26h8M320 26h8M368 26h8M480 26h8M16 27h8M288 27h8M304 27h8M320 27h8M368 27h8M480 27h8M16 28h8M288 28h8M304 28h8M320 28h8M368 28h8M480 28h8M16 29h8M288 29h8M304 29h8M320 29h8M368 29h8M480 29h8M16 30h8M288 30h8M304 30h8M320 30h8M368 30h8M480 30h8M16 31h8M288 31h8M304 31h8M320 31h8M368 31h8M480 31h8M16 32h8M320 32h8M368 32h8M16 33h8M320 33h8M368 33h8M16 34h8M320 34h8M368 34h8M16 35h8M320 35h8M368 35h8M16 36h8M320 36h8M368 36h8M16 37h8M320 37h8M368 37h8M16 38h8M320 38h8M368 38h8M16 39h8M320 39h8M368 39h8M16 40h312M16 41h312M16 42h312M16 43h312M16 44h312M16 45h312M16 46h312M16 47h312M16 48h8M320 48h8M16 49h8M320 49h8M16 50h8M320 50h8M16 51h8M320 51h8M16 52h8M320 52h8M16 53h8M320 53h8M16 54h8M320 54h8M16 55h8M320 55h8M16 56h8M320 56h8M16 57h8M320 57h8M16 58h8M320 58h8M16 59h8M320 59h8M16 60h8M320 60h8M16 61h8M320 61h8M16 62h8M320 62h8M16 63h8M320 63h8M16 64h8M48 64h40M96 64h40M144 64h40M200 64h32M248 64h40M320 64h8M432 64h8M16 65h8M48 65h40M96 65h40M144 65h40M200 65h32M248 65h40M320 65h8M432 65h8M16 66h8M48 66h40M96 66h40M144 66h40M200 66h32M248 66h40M320 66h8M432 66h8M16 67h8M48 67h40M96 67h40M144 67h40M200 67h32M248 67h40M320 67h8M432 67h8M16 68h8M48 68h40M96 68h40M144 68h40M200 68h32M248 68h40M320 68h8M432 68h8M16 69h8M48 69h40M96 69h40M144 69h40M200 69h32M248 69h40M320 69h8M432 69h8M16 70h8M48 70h40M96 70h40M144 70h40M200 70h32M248 70h40M320 70h8M432 70h8M16 71h8M48 71h40M96 71h40M144 71h40M200 71h32M248 71h40M320 71h8M432 71h8M16 72h8M48 72h16M96 72h16M128 72h8M144 72h16M176 72h8M192 72h16M224 72h16M248 72h16M280 72h8M320 72h8M16 73h8M48 73h16M96 73h16M128 73h8M144 73h16M176 73h8M192 73h16M224 73h16M248 73h16M280 73h8M320 73h8M16 74h8M48 74h16M96 74h16M128 74h8M144 74h16M176 74h8M192 74h16M224 74h16M248 74h16M280 74h8M320 74h8M16 75h8M48 75h16M96 75h16M128 75h8M144 75h16M176 75h8M192 75h16M224 75h16M248 75h16M280 75h8M320 75h8M16 76h8M48 76h16M96 76h16M128 76h8M144 76h16M176 76h8M192 76h16M224 76h16M248 76h16M280 76h8M320 76h8M16 77h8M48 77h16M96 77h16M128 77h8M144 77h16M176 77h8M192 77h16M224 77h16M248 77h16M280 77h8M320 77h8M16 78h8M48 78h16M96 78h16M128 78h8M144 78h16M176 78h8M192 78h16M224 78h16M248 78h16M280 78h8M320 78h8M16 79h8M48 79h16M96 79h16M128 79h8M144 79h16M176 79h8M192 79h16M224 79h16M248 79h16M280 79h8M320 79h8M16 80h8M48 80h16M16 81h8M48 81h16M16 82h8M48 82h16M16 83h8M48 83h16M16 84h8M48 84h16M16 85h8M48 85h16M16 86h8M48 86h16M16 87h8M48 87h16M16 88h8M48 88h8M64 88h336M440 88h8M16 89h8M48 89h8M64 89h336M440 89h8M16 90h8M48 90h8M64 90h336M440 90h8M16 91h8M48 91h8M64 91h336M440 91h8M16 92h8M48 92h8M64 92h336M440 92h8M16 93h8M48 93h8M64 93h336M440 93h8M16 94h8M48 94h8M64 94h336M440 94h8M16 95h8M48 95h8M64 95h336M440 95h8M16 96h8M48 96h8M64 96h8M408 96h8M424 96h8M440 96h8M16 97h8M48 97h8M64 97h8M408 97h8M424 97h8M440 97h8M16 98h8M48 98h8M64 98h8M408 98h8M424 98h8M440 98h8M16 99h8M48 99h8M64 99h8M408 99h8M424 99h8M440 99h8M16 100h8M48 100h8M64 100h8M408 100h8M424 100h8M440 100h8M16 101h8M48 101h8M64 101h8M408 101h8M424 101h8M440 101h8M16 102h8M48 102h8M64 102h8M408 102h8M424 102h8M440 102h8M16 103h8M48 103h8M64 103h8M408 103h8M424 103h8M440 103h8M16 104h8M48 104h8M64 104h8M416 104h8M440 104h8M16 105h8M48 105h8M64 105h8M416 105h8M440 105h8M16 106h8M48 106h8M64 106h8M416 106h8M440 106h8M16 107h8M48 107h8M64 107h8M416 107h8M440 107h8M16 108h8M48 108h8M64 108h8M416 108h8M440 108h8M16 109h8M48 109h8M64 109h8M416 109h8M440 109h8M16 110h8M48 110h8M64 110h8M416 110h8M440 110h8M16 111h8M48 111h8M64 111h8M416 111h8M440 111h8M16 112h8M64 112h8M408 112h8M424 112h8M440 112h8M16 113h8M64 113h8M408 113h8M424 113h8M440 113h8M16 114h8M64 114h8M408 114h8M424 114h8M440 114h8M16 115h8M64 115h8M408 115h8M424 115h8M440 115h8M16 116h8M64 116h8M408 116h8M424 116h8M440 116h8M16 117h8M64 117h8M408 117h8M424 117h8M440 117h8M16 118h8M64 118h8M408 118h8M424 118h8M440 118h8M16 119h8M64 119h8M408 119h8M424 119h8M440 119h8M16 120h8M64 120h8M440 120h8M472 120h8M488 120h8M16 121h8M64 121h8M440 121h8M472 121h8M488 121h8M16 122h8M64 122h8M440 122h8M472 122h8M488 122h8M16 123h8M64 123h8M440 123h8M472 123h8M488 123h8M16 124h8M64 124h8M440 124h8M472 124h8M488 124h8M16 125h8M64 125h8M440 125h8M472 125h8M488 125h8M16 126h8M64 126h8M440 126h8M472 126h8M488 126h8M16 127h8M64 127h8M440 127h8M472 127h8M488 127h8M16 128h40M64 128h384M464 128h40M16 129h40M64 129h384M464 129h40M16 130h40M64 130h384M464 130h40M16 131h40M64 131h384M464 131h40M16 132h40M64 132h384M464 132h40M16 133h40M64 133h384M464 133h40M16 134h40M64 134h384M464 134h40M16 135h40M64 135h384M464 135h40M64 136h8M440 136h8M472 136h8M488 136h8M64 137h8M440 137h8M472 137h8M488 137h8M64 138h8M440 138h8M472 138h8M488 138h8M64 139h8M440 139h8M472 139h8M488 139h8M64 140h8M440 140h8M472 140h8M488 140h8M64 141h8M440 141h8M472 141h8M488 141h8M64 142h8M440 142h8M472 142h8M488 142h8M64 143h8M440 143h8M472 143h8M488 143h8M64 144h8M440 144h8M464 144h40M64 145h8M440 145h8M464 145h40M64 146h8M440 146h8M464 146h40M64 147h8M440 147h8M464 147h40M64 148h8M440 148h8M464 148h40M64 149h8M440 149h8M464 149h40M64 150h8M440 150h8M464 150h40M64 151h8M440 151h8M464 151h40M64 152h8M88 152h16M112 152h8M128 152h8M144 152h40M200 152h32M240 152h32M280 152h16M320 152h8M336 152h40M392 152h32M440 152h8M472 152h8M488 152h8M64 153h8M88 153h16M112 153h8M128 153h8M144 153h40M200 153h32M240 153h32M280 153h16M320 153h8M336 153h40M392 153h32M440 153h8M472 153h8M488 153h8M64 154h8M88 154h16M112 154h8M128 154h8M144 154h40M200 154h32M240 154h32M280 154h16M320 154h8M336 154h40M392 154h32M440 154h8M472 154h8M488 154h8M64 155h8M88 155h16M112 155h8M128 155h8M144 155h40M200 155h32M240 155h32M280 155h16M320 155h8M336 155h40M392 155h32M440 155h8M472 155h8M488 155h8M64 156h8M88 156h16M112 156h8M128 156h8M144 156h40M200 156h32M240 156h32M280 156h16M320 156h8M336 156h40M392 156h32M440 156h8M472 156h8M488 156h8M64 157h8M88 157h16M112 157h8M128 157h8M144 157h40M200 157h32M240 157h32M280 157h16M320 157h8M336 157h40M392 157h32M440 157h8M472 157h8M488 157h8M64 158h8M88 158h16M112 158h8M128 158h8M144 158h40M200 158h32M240 158h32M280 158h16M320 158h8M336 158h40M392 158h32M440 158h8M472 158h8M488 158h8M64 159h8M88 159h16M112 159h8M128 159h8M144 159h40M200 159h32M240 159h32M280 159h16M320 159h8M336 159h40M392 159h32M440 159h8M472 159h8M488 159h8M64 160h8M88 160h16M112 160h8M128 160h8M144 160h16M192 160h16M224 160h8M248 160h16M280 160h24M312 160h16M336 160h16M392 160h8M416 160h8M440 160h8M64 161h8M88 161h16M112 161h8M128 161h8M144 161h16M192 161h16M224 161h8M248 161h16M280 161h24M312 161h16M336 161h16M392 161h8M416 161h8M440 161h8M64 162h8M88 162h16M112 162h8M128 162h8M144 162h16M192 162h16M224 162h8M248 162h16M280 162h24M312 162h16M336 162h16M392 162h8M416 162h8M440 162h8M64 163h8M88 163h16M112 163h8M128 163h8M144 163h16M192 163h16M224 163h8M248 163h16M280 163h24M312 163h16M336 163h16M392 163h8M416 163h8M440 163h8M64 164h8M88 164h16M112 164h8M128 164h8M144 164h16M192 164h16M224 164h8M248 164h16M280 164h24M312 164h16M336 164h16M392 164h8M416 164h8M440 164h8M64 165h8M88 165h16M112 165h8M128 165h8M144 165h16M192 165h16M224 165h8M248 165h16M280 165h24M312 165h16M336 165h16M392 165h8M416 165h8M440 165h8M64 166h8M88 166h16M112 166h8M128 166h8M144 166h16M192 166h16M224 166h8M248 166h16M280 166h24M312 166h16M336 166h16M392 166h8M416 166h8M440 166h8M64 167h8M88 167h16M112 167h8M128 167h8M144 167h16M192 167h16M224 167h8M248 167h16M280 167h24M312 167h16M336 167h16M392 167h8M416 167h8M440 167h8M64 168h8M88 168h16M112 168h8M128 168h8M144 168h16M192 168h16M248 168h16M280 168h48M336 168h16M384 168h16M440 168h8M64 169h8M88 169h16M112 169h8M128 169h8M144 169h16M192 169h16M248 169h16M280 169h48M336 169h16M384 169h16M440 169h8M64 170h8M88 170h16M112 170h8M128 170h8M144 170h16M192 170h16M248 170h16M280 170h48M336 170h16M384 170h16M440 170h8M64 171h8M88 171h16M112 171h8M128 171h8M144 171h16M192 171h16M248 171h16M280 171h48M336 171h16M384 171h16M440 171h8M64 172h8M88 172h16M112 172h8M128 172h8M144 172h16M192 172h16M248 172h16M280 172h48M336 172h16M384 172h16M440 172h8M64 173h8M88 173h16M112 173h8M128 173h8M144 173h16M192 173h16M248 173h16M280 173h48M336 173h16M384 173h16M440 173h8M64 174h8M88 174h16M112 174h8M128 174h8M144 174h16M192 174h16M248 174h16M280 174h48M336 174h16M384 174h16M440 174h8M64 175h8M88 175h16M112 175h8M128 175h8M144 175h16M192 175h16M248 175h16M280 175h48M336 175h16M384 175h16M440 175h8M64 176h8M88 176h48M144 176h40M208 176h24M248 176h16M280 176h16M304 176h8M320 176h8M336 176h40M384 176h16M440 176h8M64 177h8M88 177h48M144 177h40M208 177h24M248 177h16M280 177h16M304 177h8M320 177h8M336 177h40M384 177h16M440 177h8M64 178h8M88 178h48M144 178h40M208 178h24M248 178h16M280 178h16M304 178h8M320 178h8M336 178h40M384 178h16M440 178h8M64 179h8M88 179h48M144 179h40M208 179h24M248 179h16M280 179h16M304 179h8M320 179h8M336 179h40M384 179h16M440 179h8M64 180h8M88 180h48M144 180h40M208 180h24M248 180h16M280 180h16M304 180h8M320 180h8M336 180h40M384 180h16M440 180h8M64 181h8M88 181h48M144 181h40M208 181h24M248 181h16M280 181h16M304 181h8M320 181h8M336 181h40M384 181h16M440 181h8M64 182h8M88 182h48M144 182h40M208 182h24M248 182h16M280 182h16M304 182h8M320 182h8M336 182h40M384 182h16M440 182h8M64 183h8M88 183h48M144 183h40M208 183h24M248 183h16M280 183h16M304 183h8M320 183h8M336 183h40M384 183h16M440 183h8M64 184h8M88 184h24M120 184h16M144 184h16M192 184h16M224 184h8M248 184h16M280 184h16M304 184h8M320 184h8M336 184h16M384 184h16M416 184h8M440 184h8M64 185h8M88 185h24M120 185h16M144 185h16M192 185h16M224 185h8M248 185h16M280 185h16M304 185h8M320 185h8M336 185h16M384 185h16M416 185h8M440 185h8M64 186h8M88 186h24M120 186h16M144 186h16M192 186h16M224 186h8M248 186h16M280 186h16M304 186h8M320 186h8M336 186h16M384 186h16M416 186h8M440 186h8M64 187h8M88 187h24M120 187h16M144 187h16M192 187h16M224 187h8M248 187h16M280 187h16M304 187h8M320 187h8M336 187h16M384 187h16M416 187h8M440 187h8M64 188h8M88 188h24M120 188h16M144 188h16M192 188h16M224 188h8M248 188h16M280 188h16M304 188h8M320 188h8M336 188h16M384 188h16M416 188h8M440 188h8M64 189h8M88 189h24M120 189h16M144 189h16M192 189h16M224 189h8M248 189h16M280 189h16M304 189h8M320 189h8M336 189h16M384 189h16M416 189h8M440 189h8M64 190h8M88 190h24M120 190h16M144 190h16M192 190h16M224 190h8M248 190h16M280 190h16M304 190h8M320 190h8M336 190h16M384 190h16M416 190h8M440 190h8M64 191h8M88 191h24M120 191h16M144 191h16M192 191h16M224 191h8M248 191h16M280 191h16M304 191h8M320 191h8M336 191h16M384 191h16M416 191h8M440 191h8M64 192h8M88 192h16M120 192h8M144 192h40M200 192h32M248 192h16M280 192h16M320 192h8M336 192h40M392 192h32M440 192h8M64 193h8M88 193h16M120 193h8M144 193h40M200 193h32M248 193h16M280 193h16M320 193h8M336 193h40M392 193h32M440 193h8M64 194h8M88 194h16M120 194h8M144 194h40M200 194h32M248 194h16M280 194h16M320 194h8M336 194h40M392 194h32M440 194h8M64 195h8M88 195h16M120 195h8M144 195h40M200 195h32M248 195h16M280 195h16M320 195h8M336 195h40M392 195h32M440 195h8M64 196h8M88 196h16M120 196h8M144 196h40M200 196h32M248 196h16M280 196h16M320 196h8M336 196h40M392 196h32M440 196h8M64 197h8M88 197h16M120 197h8M144 197h40M200 197h32M248 197h16M280 197h16M320 197h8M336 197h40M392 197h32M440 197h8M64 198h8M88 198h16M120 198h8M144 198h40M200 198h32M248 198h16M280 198h16M320 198h8M336 198h40M392 198h32M440 198h8M64 199h8M88 199h16M120 199h8M144 199h40M200 199h32M248 199h16M280 199h16M320 199h8M336 199h40M392 199h32M440 199h8M64 200h8M440 200h8M64 201h8M440 201h8M64 202h8M440 202h8M64 203h8M440 203h8M64 204h8M440 204h8M64 205h8M440 205h8M64 206h8M440 206h8M64 207h8M440 207h8M64 208h8M440 208h8M496 208h16M64 209h8M440 209h8M496 209h16M64 210h8M440 210h8M496 210h16M64 211h8M440 211h8M496 211h16M64 212h8M440 212h8M496 212h16M64 213h8M440 213h8M496 213h16M64 214h8M440 214h8M496 214h16M64 215h8M440 215h8M496 215h16M64 216h384M480 216h8M496 216h16M64 217h384M480 217h8M496 217h16M64 218h384M480 218h8M496 218h16M64 219h384M480 219h8M496 219h16M64 220h384M480 220h8M496 220h16M64 221h384M480 221h8M496 221h16M64 222h384M480 222h8M496 222h16M64 223h384M480 223h8M496 223h16M488 224h24M488 225h24M488 226h24M488 227h24M488 228h24M488 229h24M488 230h24M488 231h24M256 232h8M272 232h24M304 232h8M320 232h8M336 232h24M368 232h8M384 232h8M416 232h8M472 232h24M256 233h8M272 233h24M304 233h8M320 233h8M336 233h24M368 233h8M384 233h8M416 233h8M472 233h24M256 234h8M272 234h24M304 234h8M320 234h8M336 234h24M368 234h8M384 234h8M416 234h8M472 234h24M256 235h8M272 235h24M304 235h8M320 235h8M336 235h24M368 235h8M384 235h8M416 235h8M472 235h24M256 236h8M272 236h24M304 236h8M320 236h8M336 236h24M368 236h8M384 236h8M416 236h8M472 236h24M256 237h8M272 237h24M304 237h8M320 237h8M336 237h24M368 237h8M384 237h8M416 237h8M472 237h24M256 238h8M272 238h24M304 238h8M320 238h8M336 238h24M368 238h8M384 238h8M416 238h8M472 238h24M256 239h8M272 239h24M304 239h8M320 239h8M336 239h24M368 239h8M384 239h8M416 239h8M472 239h24M0 240h136M144 240h40M192 240h16M224 240h8M256 240h8M272 240h8M288 240h8M304 240h8M320 240h8M336 240h8M352 240h8M368 240h8M384 240h8M416 240h8M472 240h24M0 241h136M144 241h40M192 241h16M224 241h8M256 241h8M272 241h8M288 241h8M304 241h8M320 241h8M336 241h8M352 241h8M368 241h8M384 241h8M416 241h8M472 241h24M0 242h136M144 242h40M192 242h16M224 242h8M256 242h8M272 242h8M288 242h8M304 242h8M320 242h8M336 242h8M352 242h8M368 242h8M384 242h8M416 242h8M472 242h24M0 243h136M144 243h40M192 243h16M224 243h8M256 243h8M272 243h8M288 243h8M304 243h8M320 243h8M336 243h8M352 243h8M368 243h8M384 243h8M416 243h8M472 243h24M0 244h136M144 244h40M192 244h16M224 244h8M256 244h8M272 244h8M288 244h8M304 244h8M320 244h8M336 244h8M352 244h8M368 244h8M384 244h8M416 244h8M472 244h24M0 245h136M144 245h40M192 245h16M224 245h8M256 245h8M272 245h8M288 245h8M304 245h8M320 245h8M336 245h8M352 245h8M368 245h8M384 245h8M416 245h8M472 245h24M0 246h136M144 246h40M192 246h16M224 246h8M256 246h8M272 246h8M288 246h8M304 246h8M320 246h8M336 246h8M352 246h8M368 246h8M384 246h8M416 246h8M472 246h24M0 247h136M144 247h40M192 247h16M224 247h8M256 247h8M272 247h8M288 247h8M304 247h8M320 247h8M336 247h8M352 247h8M368 247h8M384 247h8M416 247h8M472 247h24M256 248h8M272 248h24M304 248h8M320 248h8M336 248h24M368 248h8M384 248h8M416 248h8M488 248h24M256 249h8M272 249h24M304 249h8M320 249h8M336 249h24M368 249h8M384 249h8M416 249h8M488 249h24M256 250h8M272 250h24M304 250h8M320 250h8M336 250h24M368 250h8M384 250h8M416 250h8M488 250h24M256 251h8M272 251h24M304 251h8M320 251h8M336 251h24M368 251h8M384 251h8M416 251h8M488 251h24M256 252h8M272 252h24M304 252h8M320 252h8M336 252h24M368 252h8M384 252h8M416 252h8M488 252h24M256 253h8M272 253h24M304 253h8M320 253h8M336 253h24M368 253h8M384 253h8M416 253h8M488 253h24M256 254h8M272 254h24M304 254h8M320 254h8M336 254h24M368 254h8M384 254h8M416 254h8M488 254h24M256 255h8M272 255h24M304 255h8M320 255h8M336 255h24M368 255h8M384 255h8M416 255h8M488 255h24M32 256h40M416 256h8M464 256h8M480 256h8M496 256h16M32 257h40M416 257h8M464 257h8M480 257h8M496 257h16M32 258h40M416 258h8M464 258h8M480 258h8M496 258h16M32 259h40M416 259h8M464 259h8M480 259h8M496 259h16M32 260h40M416 260h8M464 260h8M480 260h8M496 260h16M32 261h40M416 261h8M464 261h8M480 261h8M496 261h16M32 262h40M416 262h8M464 262h8M480 262h8M496 262h16M32 263h40M416 263h8M464 263h8M480 263h8M496 263h16M24 264h56M224 264h8M416 264h8M464 264h8M496 264h16M24 265h56M224 265h8M416 265h8M464 265h8M496 265h16M24 266h56M224 266h8M416 266h8M464 266h8M496 266h16M24 267h56M224 267h8M416 267h8M464 267h8M496 267h16M24 268h56M224 268h8M416 268h8M464 268h8M496 268h16M24 269h56M224 269h8M416 269h8M464 269h8M496 269h16M24 270h56M224 270h8M416 270h8M464 270h8M496 270h16M24 271h56M224 271h8M416 271h8M464 271h8M496 271h16M16 272h56M216 272h24M416 272h8M456 272h8M16 273h56M216 273h24M416 273h8M456 273h8M16 274h56M216 274h24M416 274h8M456 274h8M16 275h56M216 275h24M416 275h8M456 275h8M16 276h56M216 276h24M416 276h8M456 276h8M16 277h56M216 277h24M416 277h8M456 277h8M16 278h56M216 278h24M416 278h8M456 278h8M16 279h56M216 279h24M416 279h8M456 279h8M8 280h56M120 280h8M224 280h8M416 280h8M456 280h8M8 281h56M120 281h8M224 281h8M416 281h8M456 281h8M8 282h56M120 282h8M224 282h8M416 282h8M456 282h8M8 283h56M120 283h8M224 283h8M416 283h8M456 283h8M8 284h56M120 284h8M224 284h8M416 284h8M456 284h8M8 285h56M120 285h8M224 285h8M416 285h8M456 285h8M8 286h56M120 286h8M224 286h8M416 286h8M456 286h8M8 287h56M120 287h8M224 287h8M416 287h8M456 287h8M8 288h48M120 288h8M416 288h8M456 288h8M8 289h48M120 289h8M416 289h8M456 289h8M8 290h48M120 290h8M416 290h8M456 290h8M8 291h48M120 291h8M416 291h8M456 291h8M8 292h48M120 292h8M416 292h8M456 292h8M8 293h48M120 293h8M416 293h8M456 293h8M8 294h48M120 294h8M416 294h8M456 294h8M8 295h48M120 295h8M416 295h8M456 295h8M8 296h40M112 296h24M416 296h8M448 296h8M8 297h40M112 297h24M416 297h8M448 297h8M8 298h40M112 298h24M416 298h8M448 298h8M8 299h40M112 299h24M416 299h8M448 299h8M8 300h40M112 300h24M416 300h8M448 300h8M8 301h40M112 301h24M416 301h8M448 301h8M8 302h40M112 302h24M416 302h8M448 302h8M8 303h40M112 303h24M416 303h8M448 303h8M8 304h48M120 304h8M168 304h8M416 304h8M448 304h8M8 305h48M120 305h8M168 305h8M416 305h8M448 305h8M8 306h48M120 306h8M168 306h8M416 306h8M448 306h8M8 307h48M120 307h8M168 307h8M416 307h8M448 307h8M8 308h48M120 308h8M168 308h8M416 308h8M448 308h8M8 309h48M120 309h8M168 309h8M416 309h8M448 309h8M8 310h48M120 310h8M168 310h8M416 310h8M448 310h8M8 311h48M120 311h8M168 311h8M416 311h8M448 311h8M8 312h56M120 312h8M408 312h16M440 312h8M8 313h56M120 313h8M408 313h16M440 313h8M8 314h56M120 314h8M408 314h16M440 314h8M8 315h56M120 315h8M408 315h16M440 315h8M8 316h56M120 316h8M408 316h16M440 316h8M8 317h56M120 317h8M408 317h16M440 317h8M8 318h56M120 318h8M408 318h16M440 318h8M8 319h56M120 319h8M408 319h16M440 319h8M16 320h56M352 320h8M400 320h8M416 320h8M440 320h8M16 321h56M352 321h8M400 321h8M416 321h8M440 321h8M16 322h56M352 322h8M400 322h8M416 322h8M440 322h8M16 323h56M352 323h8M400 323h8M416 323h8M440 323h8M16 324h56M352 324h8M400 324h8M416 324h8M440 324h8M16 325h56M352 325h8M400 325h8M416 325h8M440 325h8M16 326h56M352 326h8M400 326h8M416 326h8M440 326h8M16 327h56M352 327h8M400 327h8M416 327h8M440 327h8M24 328h56M392 328h8M416 328h8M24 329h56M392 329h8M416 329h8M24 330h56M392 330h8M416 330h8M24 331h56M392 331h8M416 331h8M24 332h56M392 332h8M416 332h8M24 333h56M392 333h8M416 333h8M24 334h56M392 334h8M416 334h8M24 335h56M392 335h8M416 335h8M32 336h40M384 336h8M416 336h8M456 336h24M32 337h40M384 337h8M416 337h8M456 337h24M32 338h40M384 338h8M416 338h8M456 338h24M32 339h40M384 339h8M416 339h8M456 339h24M32 340h40M384 340h8M416 340h8M456 340h24M32 341h40M384 341h8M416 341h8M456 341h24M32 342h40M384 342h8M416 342h8M456 342h24M32 343h40M384 343h8M416 343h8M456 343h24M224 344h8M240 344h24M272 344h8M288 344h24M320 344h8M336 344h8M352 344h8M384 344h8M416 344h8M440 344h8M456 344h24M488 344h8M224 345h8M240 345h24M272 345h8M288 345h24M320 345h8M336 345h8M352 345h8M384 345h8M416 345h8M440 345h8M456 345h24M488 345h8M224 346h8M240 346h24M272 346h8M288 346h24M320 346h8M336 346h8M352 346h8M384 346h8M416 346h8M440 346h8M456 346h24M488 346h8M224 347h8M240 347h24M272 347h8M288 347h24M320 347h8M336 347h8M352 347h8M384 347h8M416 347h8M440 347h8M456 347h24M488 347h8M224 348h8M240 348h24M272 348h8M288 348h24M320 348h8M336 348h8M352 348h8M384 348h8M416 348h8M440 348h8M456 348h24M488 348h8M224 349h8M240 349h24M272 349h8M288 349h24M320 349h8M336 349h8M352 349h8M384 349h8M416 349h8M440 349h8M456 349h24M488 349h8M224 350h8M240 350h24M272 350h8M288 350h24M320 350h8M336 350h8M352 350h8M384 350h8M416 350h8M440 350h8M456 350h24M488 350h8M224 351h8M240 351h24M272 351h8M288 351h24M320 351h8M336 351h8M352 351h8M384 351h8M416 351h8M440 351h8M456 351h24M488 351h8M8 352h128M144 352h40M192 352h16M224 352h8M240 352h8M256 352h8M272 352h8M288 352h8M304 352h8M320 352h8M336 352h8M352 352h8M384 352h8M416 352h8M448 352h40M8 353h128M144 353h40M192 353h16M224 353h8M240 353h8M256 353h8M272 353h8M288 353h8M304 353h8M320 353h8M336 353h8M352 353h8M384 353h8M416 353h8M448 353h40M8 354h128M144 354h40M192 354h16M224 354h8M240 354h8M256 354h8M272 354h8M288 354h8M304 354h8M320 354h8M336 354h8M352 354h8M384 354h8M416 354h8M448 354h40M8 355h128M144 355h40M192 355h16M224 355h8M240 355h8M256 355h8M272 355h8M288 355h8M304 355h8M320 355h8M336 355h8M352 355h8M384 355h8M416 355h8M448 355h40M8 356h128M144 356h40M192 356h16M224 356h8M240 356h8M256 356h8M272 356h8M288 356h8M304 356h8M320 356h8M336 356h8M352 356h8M384 356h8M416 356h8M448 356h40M8 357h128M144 357h40M192 357h16M224 357h8M240 357h8M256 357h8M272 357h8M288 357h8M304 357h8M320 357h8M336 357h8M352 357h8M384 357h8M416 357h8M448 357h40M8 358h128M144 358h40M192 358h16M224 358h8M240 358h8M256 358h8M272 358h8M288 358h8M304 358h8M320 358h8M336 358h8M352 358h8M384 358h8M416 358h8M448 358h40M8 359h128M144 359h40M192 359h16M224 359h8M240 359h8M256 359h8M272 359h8M288 359h8M304 359h8M320 359h8M336 359h8M352 359h8M384 359h8M416 359h8M448 359h40M224 360h8M240 360h24M272 360h8M288 360h24M320 360h8M336 360h8M352 360h8M384 360h8M416 360h8M432 360h32M472 360h32M224 361h8M240 361h24M272 361h8M288 361h24M320 361h8M336 361h8M352 361h8M384 361h8M416 361h8M432 361h32M472 361h32M224 362h8M240 362h24M272 362h8M288 362h24M320 362h8M336 362h8M352 362h8M384 362h8M416 362h8M432 362h32M472 362h32M224 363h8M240 363h24M272 363h8M288 363h24M320 363h8M336 363h8M352 363h8M384 363h8M416 363h8M432 363h32M472 363h32M224 364h8M240 364h24M272 364h8M288 364h24M320 364h8M336 364h8M352 364h8M384 364h8M416 364h8M432 364h32M472 364h32M224 365h8M240 365h24M272 365h8M288 365h24M320 365h8M336 365h8M352 365h8M384 365h8M416 365h8M432 365h32M472 365h32M224 366h8M240 366h24M272 366h8M288 366h24M320 366h8M336 366h8M352 366h8M384 366h8M416 366h8M432 366h32M472 366h32M224 367h8M240 367h24M272 367h8M288 367h24M320 367h8M336 367h8M352 367h8M384 367h8M416 367h8M432 367h32M472 367h32M488 368h16M488 369h16M488 370h16M488 371h16M488 372h16M488 373h16M488 374h16M488 375h16M48 376h8M80 376h8M176 376h8M328 376h160M48 377h8M80 377h8M176 377h8M328 377h160M48 378h8M80 378h8M176 378h8M328 378h160M48 379h8M80 379h8M176 379h8M328 379h160M48 380h8M80 380h8M176 380h8M328 380h160M48 381h8M80 381h8M176 381h8M328 381h160M48 382h8M80 382h8M176 382h8M328 382h160M48 383h8M80 383h8M176 383h8M328 383h160M56 384h24M120 384h8M168 384h24M288 384h40M472 384h32M56 385h24M120 385h8M168 385h24M288 385h40M472 385h32M56 386h24M120 386h8M168 386h24M288 386h40M472 386h32M56 387h24M120 387h8M168 387h24M288 387h40M472 387h32M56 388h24M120 388h8M168 388h24M288 388h40M472 388h32M56 389h24M120 389h8M168 389h24M288 389h40M472 389h32M56 390h24M120 390h8M168 390h24M288 390h40M472 390h32M56 391h24M120 391h8M168 391h24M288 391h40M472 391h32M48 392h8M64 392h8M80 392h8M176 392h8M256 392h72M336 392h128M472 392h32M48 393h8M64 393h8M80 393h8M176 393h8M256 393h72M336 393h128M472 393h32M48 394h8M64 394h8M80 394h8M176 394h8M256 394h72M336 394h128M472 394h32M48 395h8M64 395h8M80 395h8M176 395h8M256 395h72M336 395h128M472 395h32M48 396h8M64 396h8M80 396h8M176 396h8M256 396h72M336 396h128M472 396h32M48 397h8M64 397h8M80 397h8M176 397h8M256 397h72M336 397h128M472 397h32M48 398h8M64 398h8M80 398h8M176 398h8M256 398h72M336 398h128M472 398h32M48 399h8M64 399h8M80 399h8M176 399h8M256 399h72M336 399h128M472 399h32M40 400h56M216 400h112M336 400h128M472 400h32M40 401h56M216 401h112M336 401h128M472 401h32M40 402h56M216 402h112M336 402h128M472 402h32M40 403h56M216 403h112M336 403h128M472 403h32M40 404h56M216 404h112M336 404h128M472 404h32M40 405h56M216 405h112M336 405h128M472 405h32M40 406h56M216 406h112M336 406h128M472 406h32M40 407h56M216 407h112M336 407h128M472 407h32M40 408h8M64 408h8M88 408h8M176 408h160M344 408h120M480 408h24M40 409h8M64 409h8M88 409h8M176 409h160M344 409h120M480 409h24M40 410h8M64 410h8M88 410h8M176 410h160M344 410h120M480 410h24M40 411h8M64 411h8M88 411h8M176 411h160M344 411h120M480 411h24M40 412h8M64 412h8M88 412h8M176 412h160M344 412h120M480 412h24M40 413h8M64 413h8M88 413h8M176 413h160M344 413h120M480 413h24M40 414h8M64 414h8M88 414h8M176 414h160M344 414h120M480 414h24M40 415h8M64 415h8M88 415h8M176 415h160M344 415h120M480 415h24M144 416h192M344 416h128M480 416h24M144 417h192M344 417h128M480 417h24M144 418h192M344 418h128M480 418h24M144 419h192M344 419h128M480 419h24M144 420h192M344 420h128M480 420h24M144 421h192M344 421h128M480 421h24M144 422h192M344 422h128M480 422h24M144 423h192M344 423h128M480 423h24M0 424h8M104 424h232M344 424h120M480 424h24M0 425h8M104 425h232M344 425h120M480 425h24M0 426h8M104 426h232M344 426h120M480 426h24M0 427h8M104 427h232M344 427h120M480 427h24M0 428h8M104 428h232M344 428h120M480 428h24M0 429h8M104 429h232M344 429h120M480 429h24M0 430h8M104 430h232M344 430h120M480 430h24M0 431h8M104 431h232M344 431h120M480 431h24M64 432h280M464 432h32M64 433h280M464 433h32M64 434h280M464 434h32M64 435h280M464 435h32M64 436h280M464 436h32M64 437h280M464 437h32M64 438h280M464 438h32M64 439h280M464 439h32M32 440h32M96 440h16M144 440h8M184 440h16M232 440h16M264 440h16M288 440h16M336 440h128M32 441h32M96 441h16M144 441h8M184 441h16M232 441h16M264 441h16M288 441h16M336 441h128M32 442h32M96 442h16M144 442h8M184 442h16M232 442h16M264 442h16M288 442h16M336 442h128M32 443h32M96 443h16M144 443h8M184 443h16M232 443h16M264 443h16M288 443h16M336 443h128M32 444h32M96 444h16M144 444h8M184 444h16M232 444h16M264 444h16M288 444h16M336 444h128M32 445h32M96 445h16M144 445h8M184 445h16M232 445h16M264 445h16M288 445h16M336 445h128M32 446h32M96 446h16M144 446h8M184 446h16M232 446h16M264 446h16M288 446h16M336 446h128M32 447h32M96 447h16M144 447h8M184 447h16M232 447h16M264 447h16M288 447h16M336 447h128M0 448h64M72 448h16M96 448h8M120 448h16M144 448h8M168 448h8M192 448h16M224 448h24M264 448h16M288 448h16M312 448h144M0 449h64M72 449h16M96 449h8M120 449h16M144 449h8M168 449h8M192 449h16M224 449h24M264 449h16M288 449h16M312 449h144M0 450h64M72 450h16M96 450h8M120 450h16M144 450h8M168 450h8M192 450h16M224 450h24M264 450h16M288 450h16M312 450h144M0 451h64M72 451h16M96 451h8M120 451h16M144 451h8M168 451h8M192 451h16M224 451h24M264 451h16M288 451h16M312 451h144M0 452h64M72 452h16M96 452h8M120 452h16M144 452h8M168 452h8M192 452h16M224 452h24M264 452h16M288 452h16M312 452h144M0 453h64M72 453h16M96 453h8M120 453h16M144 453h8M168 453h8M192 453h16M224 453h24M264 453h16M288 453h16M312 453h144M0 454h64M72 454h16M96 454h8M120 454h16M144 454h8M168 454h8M192 454h16M224 454h24M264 454h16M288 454h16M312 454h144M0 455h64M72 455h16M96 455h8M120 455h16M144 455h8M168 455h8M192 455h16M224 455h24M264 455h16M288 455h16M312 455h144M0 456h56M72 456h32M120 456h16M144 456h8M168 456h16M192 456h16M224 456h24M272 456h8M288 456h8M312 456h136M472 456h24M0 457h56M72 457h32M120 457h16M144 457h8M168 457h16M192 457h16M224 457h24M272 457h8M288 457h8M312 457h136M472 457h24M0 458h56M72 458h32M120 458h16M144 458h8M168 458h16M192 458h16M224 458h24M272 458h8M288 458h8M312 458h136M472 458h24M0 459h56M72 459h32M120 459h16M144 459h8M168 459h16M192 459h16M224 459h24M272 459h8M288 459h8M312 459h136M472 459h24M0 460h56M72 460h32M120 460h16M144 460h8M168 460h16M192 460h16M224 460h24M272 460h8M288 460h8M312 460h136M472 460h24M0 461h56M72 461h32M120 461h16M144 461h8M168 461h16M192 461h16M224 461h24M272 461h8M288 461h8M312 461h136M472 461h24M0 462h56M72 462h32M120 462h16M144 462h8M168 462h16M192 462h16M224 462h24M272 462h8M288 462h8M312 462h136M472 462h24M0 463h56M72 463h32M120 463h16M144 463h8M168 463h16M192 463h16M224 463h24M272 463h8M288 463h8M312 463h136M472 463h24M0 464h56M72 464h32M120 464h16M144 464h8M168 464h16M192 464h16M224 464h24M288 464h8M312 464h8M336 464h104M464 464h8M496 464h8M0 465h56M72 465h32M120 465h16M144 465h8M168 465h16M192 465h16M224 465h24M288 465h8M312 465h8M336 465h104M464 465h8M496 465h8M0 466h56M72 466h32M120 466h16M144 466h8M168 466h16M192 466h16M224 466h24M288 466h8M312 466h8M336 466h104M464 466h8M496 466h8M0 467h56M72 467h32M120 467h16M144 467h8M168 467h16M192 467h16M224 467h24M288 467h8M312 467h8M336 467h104M464 467h8M496 467h8M0 468h56M72 468h32M120 468h16M144 468h8M168 468h16M192 468h16M224 468h24M288 468h8M312 468h8M336 468h104M464 468h8M496 468h8M0 469h56M72 469h32M120 469h16M144 469h8M168 469h16M192 469h16M224 469h24M288 469h8M312 469h8M336 469h104M464 469h8M496 469h8M0 470h56M72 470h32M120 470h16M144 470h8M168 470h16M192 470h16M224 470h24M288 470h8M312 470h8M336 470h104M464 470h8M496 470h8M0 471h56M72 471h32M120 471h16M144 471h8M168 471h16M192 471h16M224 471h24M288 471h8M312 471h8M336 471h104M464 471h8M496 471h8M0 472h56M72 472h16M96 472h8M120 472h16M144 472h8M168 472h16M192 472h16M224 472h24M264 472h8M288 472h8M312 472h16M336 472h96M456 472h16M496 472h16M0 473h56M72 473h16M96 473h8M120 473h16M144 473h8M168 473h16M192 473h16M224 473h24M264 473h8M288 473h8M312 473h16M336 473h96M456 473h16M496 473h16M0 474h56M72 474h16M96 474h8M120 474h16M144 474h8M168 474h16M192 474h16M224 474h24M264 474h8M288 474h8M312 474h16M336 474h96M456 474h16M496 474h16M0 475h56M72 475h16M96 475h8M120 475h16M144 475h8M168 475h16M192 475h16M224 475h24M264 475h8M288 475h8M312 475h16M336 475h96M456 475h16M496 475h16M0 476h56M72 476h16M96 476h8M120 476h16M144 476h8M168 476h16M192 476h16M224 476h24M264 476h8M288 476h8M312 476h16M336 476h96M456 476h16M496 476h16M0 477h56M72 477h16M96 477h8M120 477h16M144 477h8M168 477h16M192 477h16M224 477h24M264 477h8M288 477h8M312 477h16M336 477h96M456 477h16M496 477h16M0 478h56M72 478h16M96 478h8M120 478h16M144 478h8M168 478h16M192 478h16M224 478h24M264 478h8M288 478h8M312 478h16M336 478h96M456 478h16M496 478h16M0 479h56M72 479h16M96 479h8M120 479h16M144 479h8M168 479h16M192 479h16M224 479h24M264 479h8M288 479h8M312 479h16M336 479h96M456 479h16M496 479h16M0 480h64M96 480h16M144 480h8M184 480h16M232 480h16M264 480h16M288 480h16M336 480h88M456 480h56M0 481h64M96 481h16M144 481h8M184 481h16M232 481h16M264 481h16M288 481h16M336 481h88M456 481h56M0 482h64M96 482h16M144 482h8M184 482h16M232 482h16M264 482h16M288 482h16M336 482h88M456 482h56M0 483h64M96 483h16M144 483h8M184 483h16M232 483h16M264 483h16M288 483h16M336 483h88M456 483h56M0 484h64M96 484h16M144 484h8M184 484h16M232 484h16M264 484h16M288 484h16M336 484h88M456 484h56M0 485h64M96 485h16M144 485h8M184 485h16M232 485h16M264 485h16M288 485h16M336 485h88M456 485h56M0 486h64M96 486h16M144 486h8M184 486h16M232 486h16M264 486h16M288 486h16M336 486h88M456 486h56M0 487h64M96 487h16M144 487h8M184 487h16M232 487h16M264 487h16M288 487h16M336 487h88M456 487h56M0 488h416M464 488h8M480 488h8M496 488h8M0 489h416M464 489h8M480 489h8M496 489h8M0 490h416M464 490h8M480 490h8M496 490h8M0 491h416M464 491h8M480 491h8M496 491h8M0 492h416M464 492h8M480 492h8M496 492h8M0 493h416M464 493h8M480 493h8M496 493h8M0 494h416M464 494h8M480 494h8M496 494h8M0 495h416M464 495h8M480 495h8M496 495h8" />
</svg>