<?xml version="1.0" standalone="no"?>
<!DOCTYPE svg PUBLIC "-//W3C//DTD SVG 20010904//EN"
 "http://www.w3.org/TR/2001/REC-SVG-20010904/DTD/svg10.dtd">
<svg version="1.0" xmlns="http://www.w3.org/2000/svg"
 width="2048.000000pt" height="2048.000000pt" viewBox="0 0 2048.000000 2048.000000"
 preserveAspectRatio="xMidYMid meet">
<metadata>
Created by potrace 1.14, written by Peter Selinger 2001-2017
</metadata>
<g transform="translate(0.000000,2048.000000) scale(0.100000,-0.100000)"
fill="#000000" stroke="none">
<path d="M20010 18354 c-74 -36 -160 -77 -190 -91 -203 -95 -680 -334 -680
-341 0 -5 -291 -593 -646 -1306 l-645 -1296 -142 -1 c-78 0 -182 -2 -230 -4
l-88 -2 -18 36 c-11 20 -27 44 -38 53 -30 28 -101 48 -165 48 -91 0 -313 -63
-429 -121 -63 -31 -33 -30 -869 -44 -173 -3 -394 -7 -490 -10 -96 -2 -305 -7
-465 -11 -159 -4 -310 -8 -335 -9 -25 -2 -90 -4 -144 -4 l-100 -1 -120 -124
c-129 -133 -290 -306 -317 -340 -9 -12 -19 -35 -23 -52 -6 -27 -1 -36 45 -83
84 -86 81 -86 489 -95 107 -3 305 -5 439 -6 227 0 243 -1 236 -17 -17 -43 -18
-133 -1 -177 36 -95 85 -126 253 -162 103 -21 144 -72 147 -183 2 -80 27 -156
65 -201 l29 -35 -42 -55 c-91 -119 -83 -228 26 -346 87 -95 218 -158 347 -169
67 -5 71 -8 113 -75 12 -19 27 -38 32 -42 6 -4 7 -8 2 -8 -5 0 -1 -10 10 -22
28 -33 64 -86 64 -94 0 -4 8 -17 19 -28 10 -12 78 -111 152 -221 73 -110 136
-202 139 -205 3 -3 29 -41 59 -85 30 -44 58 -82 61 -85 9 -7 59 -86 88 -138
22 -41 22 -45 7 -68 -45 -69 -178 -185 -327 -285 -123 -83 -159 -101 -344
-177 l-72 -29 -27 69 c-15 38 -33 75 -40 82 -8 7 -28 51 -45 97 -48 128 -57
147 -126 246 -35 51 -64 96 -64 99 0 11 -71 95 -125 149 -28 27 -70 76 -94
108 -24 31 -47 57 -52 57 -5 0 -9 5 -9 10 0 12 -36 55 -105 125 -27 28 -71 74
-97 102 -27 29 -48 50 -48 48 0 -2 -19 15 -43 38 -23 23 -80 76 -126 117 -46
41 -109 98 -139 125 -92 82 -111 99 -138 120 -14 11 -36 29 -49 40 -13 11 -40
33 -61 50 -20 16 -49 41 -63 55 -14 14 -55 50 -91 80 -89 76 -138 119 -177
158 -19 17 -35 32 -37 32 -2 0 -37 33 -78 73 -42 39 -106 99 -143 132 -38 33
-90 81 -117 108 -27 26 -53 47 -58 47 -5 0 -12 9 -15 20 -3 11 -9 20 -13 20
-4 0 -41 33 -83 73 -65 62 -192 179 -289 267 -15 14 -47 41 -70 60 -24 19 -52
44 -64 55 -12 11 -37 32 -56 46 -19 15 -51 41 -70 59 -19 17 -57 50 -84 73
-27 23 -60 52 -72 65 -13 12 -26 22 -30 22 -3 0 -23 14 -43 31 -53 45 -73 61
-116 94 -21 17 -46 37 -55 45 -30 28 -159 130 -164 130 -6 0 -47 33 -78 63
-10 9 -18 14 -18 10 0 -4 -11 3 -25 17 -13 14 -30 30 -37 35 -23 18 -183 149
-188 155 -6 6 -63 54 -119 100 -23 19 -56 47 -73 63 -16 15 -33 27 -37 27 -3
0 -22 15 -42 33 -42 36 -49 42 -139 112 -36 27 -69 53 -75 57 -5 5 -26 22 -45
38 -19 16 -38 30 -42 30 -4 0 -13 6 -20 13 -7 6 -40 30 -73 52 -33 22 -64 46
-68 53 -7 11 -50 42 -106 77 -9 6 -46 31 -83 57 -37 26 -104 73 -150 105 -46
31 -88 62 -94 68 -13 11 -547 381 -628 435 -222 146 -307 203 -345 231 -25 18
-71 46 -103 63 -54 27 -70 30 -176 34 -130 4 -226 -11 -308 -49 -89 -40 -438
-179 -452 -179 -8 0 -26 -7 -40 -14 -34 -19 -106 -49 -207 -88 -44 -17 -99
-39 -122 -49 -23 -11 -47 -19 -53 -19 -5 0 -18 -4 -28 -10 -15 -9 -91 -39
-557 -222 -71 -28 -142 -60 -158 -70 -89 -62 -121 -271 -67 -443 27 -87 32
-115 24 -115 -4 0 -39 26 -78 58 -70 58 -317 254 -366 290 -29 22 -167 114
-285 190 -44 28 -85 56 -92 62 -7 5 -25 16 -40 22 -15 7 -30 15 -33 18 -3 3
-43 25 -90 49 -47 24 -87 47 -90 51 -8 13 -187 95 -320 149 -155 61 -307 101
-445 116 -27 3 -65 8 -83 10 -82 12 -374 -55 -510 -116 -24 -11 -69 -29 -100
-40 -32 -12 -95 -36 -142 -54 -47 -18 -119 -45 -160 -59 -41 -15 -88 -33 -103
-41 -16 -8 -35 -15 -43 -15 -8 0 -22 -4 -32 -10 -9 -5 -71 -30 -137 -56 -66
-26 -146 -59 -177 -74 -31 -15 -59 -26 -61 -23 -15 14 -176 -185 -170 -209 2
-4 -1 -8 -5 -8 -7 0 -33 -59 -33 -77 -1 -5 -4 -12 -9 -18 -9 -12 -22 -93 -22
-150 -1 -61 13 -164 23 -171 5 -3 9 -15 9 -27 0 -13 7 -32 15 -43 8 -12 11
-24 8 -28 -3 -3 -1 -6 5 -6 7 0 12 -9 12 -20 0 -11 3 -20 8 -20 4 0 16 -17 27
-37 11 -20 25 -41 31 -47 21 -22 213 -314 286 -436 110 -185 228 -407 228
-430 0 -6 4 -10 9 -10 5 0 15 -17 22 -37 7 -21 18 -47 25 -58 6 -11 33 -69 59
-130 26 -60 53 -123 60 -140 7 -16 25 -61 40 -100 15 -38 31 -79 36 -90 41
-92 210 -607 234 -715 2 -8 11 -42 20 -75 45 -164 118 -477 130 -552 2 -11 6
-29 9 -40 3 -10 8 -36 12 -58 3 -22 8 -43 9 -46 2 -3 7 -25 10 -50 7 -52 10
-66 19 -99 3 -14 8 -38 10 -55 2 -16 9 -61 15 -100 15 -94 20 -129 25 -166 l4
-30 -41 38 c-23 21 -53 48 -67 60 -14 11 -56 47 -95 80 -38 32 -104 86 -144
118 -41 33 -86 70 -100 83 -13 12 -37 33 -53 45 -16 12 -39 30 -51 41 -53 44
-235 185 -296 228 -36 26 -71 51 -76 55 -28 22 -268 133 -316 147 -129 38
-247 47 -403 32 -77 -8 -191 -55 -241 -99 -102 -92 -125 -126 -155 -235 -15
-53 -18 -95 -15 -231 2 -91 6 -188 10 -216 13 -106 45 -323 55 -371 6 -27 13
-62 16 -79 4 -24 43 -206 69 -320 2 -11 14 -54 25 -95 11 -41 22 -82 24 -91 3
-9 10 -35 17 -57 7 -23 10 -45 7 -48 -3 -3 -37 -7 -74 -10 -144 -10 -328 -61
-382 -105 -97 -79 -120 -188 -66 -307 15 -31 14 -35 -12 -80 -15 -26 -64 -93
-108 -149 -45 -55 -88 -111 -96 -123 -8 -12 -20 -28 -25 -34 -6 -6 -21 -28
-34 -48 -12 -21 -27 -38 -32 -38 -5 0 -9 -4 -9 -9 0 -6 -27 -47 -60 -93 -126
-176 -174 -337 -144 -493 22 -121 117 -232 261 -306 52 -27 65 -30 123 -25 36
2 79 7 95 11 17 4 51 7 78 8 39 2 51 -2 70 -24 43 -48 94 -70 210 -90 157 -27
210 -27 295 1 l72 23 52 -25 c29 -14 73 -29 98 -33 25 -4 54 -9 65 -11 11 -2
61 -7 110 -10 201 -14 326 60 420 251 96 193 95 250 -8 582 -14 45 -28 105
-32 135 -4 29 -9 56 -11 59 -2 4 -6 24 -10 45 -6 40 -13 59 -58 157 -76 167
-93 211 -86 232 8 26 -2 161 -15 191 -17 41 -62 102 -93 127 -33 27 -222 123
-271 138 -29 8 -43 19 -47 35 -9 34 -9 622 -1 789 8 148 15 252 22 310 2 17 4
81 5 144 1 144 12 172 75 200 26 12 57 19 70 17 67 -12 255 -137 412 -272 11
-11 40 -35 63 -53 24 -19 48 -40 54 -46 6 -6 47 -39 91 -75 90 -72 227 -191
265 -230 23 -23 231 -189 295 -235 15 -11 39 -29 54 -41 29 -23 125 -84 156
-99 11 -6 21 -22 22 -35 1 -14 4 -45 7 -70 9 -71 16 -130 21 -190 3 -30 7 -62
10 -70 2 -8 7 -53 10 -100 4 -47 9 -88 12 -93 7 -12 6 -500 -1 -627 -9 -162
-14 -203 -52 -469 -2 -18 -7 -72 -9 -120 -6 -90 -7 -96 -30 -226 -18 -102 -23
-128 -31 -184 -4 -25 -8 -55 -11 -66 -2 -11 -6 -29 -8 -40 -2 -11 -17 -83 -33
-160 -17 -77 -33 -158 -36 -180 -4 -22 -20 -95 -36 -162 -17 -68 -44 -180 -61
-250 -35 -144 -39 -160 -104 -363 -26 -80 -48 -152 -50 -160 -2 -8 -22 -71
-44 -140 -37 -114 -136 -433 -145 -470 -14 -54 -116 -381 -129 -411 -19 -47
-81 -266 -97 -344 -7 -33 -17 -72 -22 -88 -13 -33 -15 -245 -5 -340 7 -57 20
-117 53 -232 3 -11 6 -25 8 -31 1 -7 7 -18 13 -25 6 -8 14 -24 17 -35 4 -12
42 -55 85 -95 82 -78 161 -127 386 -237 127 -62 265 -147 265 -164 0 -4 3 -7
8 -6 4 0 18 -4 32 -10 14 -6 21 -11 16 -11 -14 -1 72 -45 139 -70 88 -34 91
-35 200 -80 118 -49 177 -61 295 -61 98 0 207 18 322 54 63 19 104 43 245 143
186 133 254 179 588 405 127 85 244 163 262 172 65 33 80 25 189 -91 54 -58
130 -136 168 -172 93 -88 335 -331 416 -417 84 -89 107 -119 133 -172 l21 -42
-44 -46 c-25 -25 -76 -69 -115 -98 -187 -141 -353 -260 -485 -347 -80 -52
-190 -125 -245 -161 -132 -88 -361 -300 -448 -415 -32 -43 -50 -52 -62 -33
-13 21 -91 64 -128 71 -39 7 -117 -10 -143 -32 -8 -6 -14 -9 -14 -5 0 10 -61
-23 -95 -52 -35 -29 -115 -143 -109 -154 3 -5 1 -8 -3 -8 -5 0 -17 -26 -28
-58 -10 -31 -22 -62 -27 -68 -4 -6 -5 -14 -1 -17 3 -4 1 -7 -5 -7 -6 0 -13
-13 -17 -29 -9 -43 -50 -95 -165 -211 -105 -105 -133 -149 -145 -230 -23 -145
13 -235 153 -379 35 -36 73 -78 85 -94 12 -16 34 -43 49 -60 15 -18 28 -35 28
-38 0 -3 8 -15 17 -26 10 -11 29 -35 43 -54 62 -83 240 -263 240 -243 0 4 8
-3 19 -14 10 -12 23 -22 28 -22 6 0 18 -9 28 -20 9 -10 20 -19 24 -18 3 1 22
-5 41 -14 19 -8 53 -21 75 -28 22 -7 48 -17 58 -22 11 -5 21 -7 24 -4 3 3 18
-1 34 -10 16 -8 29 -12 29 -10 0 3 21 -4 48 -15 42 -18 172 -66 197 -73 6 -2
17 -6 25 -9 8 -3 49 -16 90 -28 41 -12 84 -25 95 -30 11 -5 32 -11 47 -13 15
-3 31 -7 36 -10 5 -3 24 -8 43 -11 19 -3 48 -8 64 -12 75 -16 173 12 216 61
12 14 28 26 34 26 6 0 18 11 25 25 7 14 17 25 21 25 5 0 17 10 29 22 11 12 20
19 20 15 0 -9 44 37 70 73 39 55 87 154 100 210 22 91 18 224 -9 293 -6 15 -8
27 -5 27 3 0 -4 13 -16 30 -12 16 -18 30 -14 30 3 0 1 7 -6 15 -7 8 -9 15 -4
15 5 0 4 4 -1 8 -6 4 -24 27 -40 52 -16 25 -32 47 -35 50 -3 3 -23 27 -45 55
-48 59 -135 143 -197 188 -78 57 -212 122 -275 133 -12 2 -34 6 -48 9 -88 18
-151 27 -200 29 -33 1 -40 5 -46 26 -12 43 -10 50 17 61 36 13 78 62 113 131
46 90 29 150 -60 210 l-39 26 37 23 c61 37 140 97 263 200 63 52 151 120 195
149 44 29 92 61 107 72 15 10 30 18 32 18 3 0 36 19 73 41 86 53 650 329 672
329 27 0 102 75 127 127 27 56 28 63 26 211 -1 169 -11 237 -50 357 -14 44
-27 82 -27 85 -46 141 -222 449 -322 564 -12 13 -63 85 -114 158 -50 73 -97
138 -103 143 -20 18 -56 74 -86 132 -35 66 -32 72 50 117 49 27 50 27 81 9 18
-10 48 -31 67 -48 92 -78 489 -484 673 -690 80 -89 399 -405 409 -405 5 0 15
-6 22 -14 23 -23 73 -45 183 -81 105 -34 109 -35 243 -30 76 2 160 9 187 15
187 41 548 218 730 357 38 29 37 29 115 86 36 27 73 55 83 63 9 8 20 14 23 14
9 0 184 134 219 167 17 16 80 69 140 118 61 49 115 94 121 99 36 35 132 114
214 177 52 40 100 78 106 84 6 5 35 30 64 55 29 25 60 52 69 61 15 15 114 104
191 173 19 17 71 61 114 96 70 58 158 139 293 271 l42 42 -61 -149 c-89 -218
-115 -287 -156 -409 -20 -60 -39 -112 -42 -115 -3 -3 -6 -18 -8 -35 -2 -16 -8
-36 -14 -43 -6 -7 -8 -15 -5 -19 4 -3 2 -13 -2 -22 -7 -13 -37 -147 -54 -241
-22 -118 -27 -151 -32 -189 -3 -23 -7 -46 -9 -50 -2 -3 -7 -38 -11 -76 -4 -39
-14 -85 -22 -103 -17 -35 -57 -72 -80 -72 -25 0 -143 -42 -157 -55 -8 -8 -16
-11 -20 -8 -3 4 -6 1 -6 -6 0 -6 -10 -22 -22 -34 -29 -28 -88 -112 -88 -125 0
-6 -4 -12 -8 -14 -8 -3 -72 -146 -75 -169 -2 -8 -6 -20 -10 -26 -5 -7 -6 -17
-2 -22 3 -5 1 -12 -5 -16 -6 -4 -8 -10 -5 -15 3 -5 1 -11 -5 -15 -6 -4 -8 -10
-5 -15 2 -4 -2 -28 -9 -54 -8 -26 -10 -46 -4 -46 5 0 6 -6 2 -12 -10 -15 -14
-138 -5 -138 3 0 6 -12 7 -27 1 -31 4 -47 24 -113 7 -25 13 -48 12 -53 -1 -4
3 -7 10 -7 6 0 9 -3 6 -6 -4 -3 0 -17 7 -31 8 -15 12 -30 9 -35 -3 -4 -1 -8 4
-8 5 0 9 -6 9 -13 0 -25 55 -123 88 -157 39 -40 123 -87 148 -82 4 1 7 -2 7
-8 0 -5 7 -7 15 -4 8 4 21 2 28 -4 17 -13 113 -6 179 13 86 24 153 37 200 37
72 -1 295 -62 332 -91 17 -13 125 -48 196 -63 114 -23 473 -16 565 12 17 5 77
19 134 30 542 111 1029 456 1238 876 l45 92 1 123 c0 164 -7 227 -45 379 -25
103 -44 142 -105 217 -81 101 -153 162 -256 217 -37 20 -68 36 -70 35 -1 0
-15 5 -31 11 -16 6 -31 8 -34 6 -2 -3 -11 1 -18 9 -8 7 -23 11 -34 8 -11 -3
-20 -1 -20 4 0 5 -8 9 -17 9 -10 1 -52 5 -93 9 -101 11 -335 8 -335 -5 0 -1
-13 -3 -30 -6 -32 -4 -68 -11 -72 -14 -2 -2 -7 -4 -13 -5 -5 -1 -11 -3 -12 -5
-2 -1 -11 -3 -20 -5 -31 -6 -93 -27 -128 -43 -19 -9 -37 -16 -40 -17 -12 -1
-125 -61 -128 -67 -2 -5 -10 -8 -18 -8 -8 0 -14 -5 -14 -11 0 -5 -4 -8 -9 -4
-6 3 -14 -3 -20 -12 -6 -10 -11 -14 -11 -10 0 5 -6 2 -14 -5 -7 -7 -24 -20
-37 -28 -13 -8 -49 -41 -81 -72 -32 -31 -58 -54 -58 -51 0 7 -65 -80 -93 -124
-14 -21 -59 -74 -101 -118 -42 -43 -76 -84 -76 -90 0 -12 -55 -75 -67 -76 -4
0 -18 -2 -30 -5 -13 -2 -23 0 -23 4 0 5 -6 9 -12 9 -68 0 -182 51 -194 86 -3
9 -11 17 -19 17 -7 0 -12 6 -11 13 7 30 136 301 148 308 5 3 8 10 6 15 -3 13
25 84 34 84 4 0 7 3 7 8 -1 4 3 21 10 37 6 17 11 34 10 39 0 5 3 12 8 15 8 5
29 50 110 241 17 39 61 137 73 160 4 8 13 40 20 70 13 55 26 87 94 233 20 42
36 79 36 82 0 3 34 74 75 159 41 85 75 161 75 168 0 8 4 18 9 24 11 11 101
276 101 296 0 8 16 53 36 102 40 99 45 136 28 219 l-12 58 82 83 c136 140 198
207 273 296 39 47 82 97 94 111 13 14 57 65 98 115 41 49 80 94 85 99 6 6 23
26 38 45 14 19 41 52 60 72 18 21 46 56 62 78 17 22 33 40 38 40 4 0 8 6 8 13
0 7 8 22 18 33 9 11 33 42 52 69 19 28 39 55 45 62 17 20 28 35 85 113 30 41
61 81 68 90 14 16 130 164 172 220 14 18 30 38 35 45 6 6 15 18 20 26 6 8 38
58 72 110 34 52 67 99 73 106 5 7 10 14 10 17 0 10 232 351 241 354 5 2 9 8 9
14 0 5 13 28 29 51 70 102 148 226 169 270 13 26 28 47 33 47 6 0 8 4 4 9 -3
6 3 14 12 20 10 6 14 11 8 11 -5 0 -3 5 5 10 8 5 15 15 15 22 1 7 6 12 12 11
6 -1 10 5 8 15 -1 9 6 28 16 41 10 13 16 27 13 32 -3 5 2 12 10 15 9 3 14 10
11 14 -3 5 0 14 7 22 7 7 14 20 16 28 2 8 7 17 12 20 5 3 12 18 15 33 4 15 10
27 14 27 4 0 15 23 26 50 11 28 23 50 28 50 4 0 6 4 3 8 -2 4 4 27 14 51 16
34 32 81 45 131 10 37 25 122 27 148 1 18 8 32 15 32 18 0 19 0 54 10 18 5 48
12 68 15 56 8 70 12 146 35 98 31 297 110 316 126 8 8 18 14 22 14 6 0 203 96
247 121 77 43 159 111 276 225 135 134 174 191 204 302 12 47 0 101 -42 187
-18 36 -92 142 -108 155 -3 3 -42 59 -85 124 -44 66 -97 145 -117 175 -20 31
-41 61 -45 66 -4 6 -26 37 -47 70 -37 56 -163 218 -213 275 -50 58 -63 73 -63
79 0 3 -10 17 -23 31 -12 14 -40 47 -60 75 -38 49 -38 50 -15 56 81 21 192 99
214 148 10 24 26 42 39 45 27 7 53 32 156 146 274 305 412 396 794 520 73 24
181 77 251 124 68 45 121 167 123 284 l1 32 53 0 c96 0 217 76 217 136 0 18 5
24 23 24 58 0 91 54 389 649 142 283 262 520 267 525 5 6 48 88 96 181 49 94
101 193 117 220 27 47 92 179 293 590 263 539 320 653 387 775 118 215 264
510 287 577 27 81 29 192 4 191 -10 0 -25 2 -33 5 -8 4 -76 -23 -150 -59z
m-10 -104 c0 -5 -12 -13 -27 -17 -16 -3 -71 -24 -123 -46 -115 -47 -131 -52
-105 -36 14 10 207 92 253 108 1 1 2 -3 2 -9z m-290 -120 c-8 -5 -19 -10 -25
-10 -5 0 -3 5 5 10 8 5 20 10 25 10 6 0 3 -5 -5 -10z m-13989 -2137 c13 -16
12 -17 -3 -4 -10 7 -18 15 -18 17 0 8 8 3 21 -13z m12599 -1127 c0 -3 -4 -8
-10 -11 -5 -3 -10 -1 -10 4 0 6 5 11 10 11 6 0 10 -2 10 -4z m7 -116 c2 -23
-12 -27 -20 -6 -3 8 -1 17 6 20 7 2 12 5 12 5 1 1 1 -8 2 -19z"/>
</g>
</svg>
